<svg fill="#2eb85c" id="Capa_1" enable-background="new 0 0 512 512" height="512" viewBox="0 0 512 512" width="512" xmlns="http://www.w3.org/2000/svg"><g><path d="m56.86 167.603v-12.25c0-4.142-3.357-7.5-7.5-7.5s-7.5 3.358-7.5 7.5v12.25c0 4.142 3.357 7.5 7.5 7.5s7.5-3.358 7.5-7.5z"/><path d="m477.215 414.919c-3.509-2.198-8.138-1.135-10.336 2.377l-9.236 14.751c-4.171 6.663-6.376 14.442-6.376 22.495v49.958c0 4.143 3.357 7.5 7.5 7.5s7.5-3.357 7.5-7.5v-49.958c0-5.234 1.414-10.262 4.09-14.536l9.235-14.751c2.198-3.51 1.135-8.138-2.377-10.336z"/><path d="m490.213 371.903-6.678-19.413v-54.451c0-8.213-5.621-15.207-13.458-17.874v-246.834c0-18.379-14.952-33.331-33.331-33.331h-384.446c-18.379 0-33.331 14.952-33.331 33.331v68.18c0 4.142 3.357 7.5 7.5 7.5s7.5-3.358 7.5-7.5v-68.18c0-10.108 8.223-18.331 18.331-18.331h384.446c10.107 0 18.331 8.223 18.331 18.331v245.665h-.637c-4.907 0-9.415 1.622-12.942 4.317-1.73-1.322-3.705-2.367-5.839-3.107.014-.207.031-.413.031-.623v-236.21c0-4.955-3.995-8.985-8.906-8.985h-86.04c-4.143 0-7.5 3.358-7.5 7.5s3.357 7.5 7.5 7.5h79.946v224.181h-40.769v-36.912h10.499c9.902 0 17.958-8.056 17.958-17.958v-28.646c0-9.902-8.056-17.958-17.958-17.958h-71.125c-9.902 0-17.958 8.056-17.958 17.958v28.646c0 9.902 8.056 17.958 17.958 17.958h11.088v36.912h-251.075v-224.182h231.323c4.143 0 7.5-3.358 7.5-7.5s-3.357-7.5-7.5-7.5h-237.418c-4.91 0-8.905 4.031-8.905 8.985v236.21c0 4.954 3.995 8.985 8.905 8.985h257.171v19.387h-278.084c-10.107 0-18.331-8.224-18.331-18.331v-157.212c0-4.142-3.357-7.5-7.5-7.5s-7.5 3.358-7.5 7.5v157.212c0 18.379 14.952 33.331 33.331 33.331h278.084v18.795l-24.02-11.695c-9.333-4.544-20.352-2.269-27.422 5.666-9.051 10.156-8.919 25.931.3 35.912l45.12 48.85c3.827 4.143 6.021 9.96 6.021 15.96v68.058c0 4.143 3.357 7.5 7.5 7.5s7.5-3.357 7.5-7.5v-68.059c0-9.872-3.552-19.154-10.002-26.138l-45.12-48.85c-3.906-4.229-3.962-11.444-.12-15.755 2.588-2.907 6.379-3.756 9.656-2.159l34.803 16.945c5.006 2.436 10.783-1.268 10.783-6.743v-128.857c0-6.355 4.383-11.526 9.77-11.526s9.769 5.17 9.769 11.526v73.155 55.704c0 4.143 3.357 7.5 7.5 7.5s7.5-3.357 7.5-7.5v-55.704c0-2.191 2.492-4.043 5.442-4.043h8.653c2.95 0 5.442 1.852 5.442 4.043v55.704c0 4.143 3.357 7.5 7.5 7.5s7.5-3.357 7.5-7.5v-55.704c0-2.191 2.492-4.043 5.442-4.043h8.653c2.95 0 5.442 1.852 5.442 4.043v55.704c0 4.143 3.357 7.5 7.5 7.5s7.5-3.357 7.5-7.5v-55.704c0-2.191 2.492-4.043 5.442-4.043h8.653c2.949 0 5.441 1.852 5.441 4.043v55.704c0 .817.159 1.713.408 2.439l7.085 20.599c1.655 4.813 2.304 10.072 1.876 15.207-.361 4.352 3.064 8.122 7.483 8.122 3.86 0 7.14-2.962 7.466-6.878.601-7.19-.311-14.565-2.637-21.329zm-135.06-173.545c-12.637 0-23.087 10.19-24.58 23.298h-11.278c-1.631 0-2.958-1.327-2.958-2.958v-28.646c0-1.631 1.327-2.958 2.958-2.958h71.125c1.631 0 2.958 1.327 2.958 2.958v28.646c0 1.631-1.327 2.958-2.958 2.958h-10.689c-1.491-13.109-11.941-23.298-24.578-23.298z"/><path d="m250.677 209.333c4.143 0 7.5-3.358 7.5-7.5s-3.357-7.5-7.5-7.5h-4.458v-21.094c0-11.917-8.929-21.78-20.447-23.268v-39.393c0-9.396-7.645-17.04-17.04-17.04h-67.705c-9.396 0-17.039 7.644-17.039 17.04v39.393c-11.518 1.488-20.448 11.351-20.448 23.268v21.094h-4.457c-4.143 0-7.5 3.358-7.5 7.5s3.357 7.5 7.5 7.5zm-111.69-98.755c0-1.125.915-2.04 2.039-2.04h67.705c1.125 0 2.04.915 2.04 2.04v39.192h-71.784zm-20.448 83.755v-21.094c0-4.67 3.799-8.469 8.469-8.469h95.743c4.669 0 8.468 3.799 8.468 8.469v21.094z"/><path d="m153.529 230.112c-4.143 0-7.5 3.358-7.5 7.5s3.357 7.5 7.5 7.5h42.7c4.143 0 7.5-3.358 7.5-7.5s-3.357-7.5-7.5-7.5z"/><path d="m399.085 71.566h-88.454c-4.143 0-7.5 3.358-7.5 7.5s3.357 7.5 7.5 7.5h88.454c4.143 0 7.5-3.358 7.5-7.5s-3.357-7.5-7.5-7.5z"/><path d="m399.085 102.93h-88.454c-4.143 0-7.5 3.358-7.5 7.5s3.357 7.5 7.5 7.5h88.454c4.143 0 7.5-3.358 7.5-7.5s-3.357-7.5-7.5-7.5z"/><path d="m399.085 134.294h-88.454c-4.143 0-7.5 3.358-7.5 7.5s3.357 7.5 7.5 7.5h88.454c4.143 0 7.5-3.358 7.5-7.5s-3.357-7.5-7.5-7.5z"/></g></svg>
